<svg xmlns="http://www.w3.org/2000/svg" viewBox="0 0 29.33 35.19">
  <g fill-rule="evenodd" fill="none">
    <path fill="currentColor"
      d="M14.66 0A14.64 14.64 0 000 14.54c-.03 1.7.64 8.52 11.56 19.37a4.39 4.39 0 006.2 0c10.92-10.85 11.6-17.67 11.57-19.37A14.64 14.64 0 0014.66 0m0 4.35c5.7 0 10.28 4.59 10.28 10.24 0 0 .35 5.69-10.28 16.24C4.04 20.28 4.38 14.6 4.38 14.6c0-5.65 4.6-10.24 10.28-10.24" />
    <path fill="none"
      d="M14.66 4.36c5.7 0 10.28 4.58 10.28 10.23 0 0 .35 5.69-10.28 16.24C4.04 20.28 4.38 14.6 4.38 14.6c0-5.65 4.6-10.23 10.28-10.23" />
  </g>
  <g fill="none">
    <path d="M5.86 4.16h17.6v17.6H5.87z" />
    <path d="M5.86 4.16h17.6v17.6H5.87z" />
  </g>
  <g fill="currentColor">
    <path d="M18.09 13.79c1 .68 1.7 1.6 1.7 2.84v2.2H22c.41 0 .74-.33.74-.73v-1.47c0-1.6-2.62-2.55-4.64-2.84z" />
    <circle cx="9" cy="8" r="4" transform="matrix(.7336 0 0 .7336 5.86 4.16)" />
    <path
      d="M16.86 12.96a2.93 2.93 0 10-.97-5.7 4.39 4.39 0 010 5.53c.3.1.63.17.97.17zM12.46 13.7c-1.96 0-5.87.98-5.87 2.93v1.47c0 .4.33.73.74.73H17.6c.4 0 .73-.33.73-.73v-1.47c0-1.95-3.9-2.94-5.87-2.94z" />
  </g>
</svg>